<?xml version="1.0" encoding="UTF-8" standalone="no"?>
<!-- Created with Inkscape (http://www.inkscape.org/) -->

<svg
   width="231.92961mm"
   height="108.70054mm"
   viewBox="0 0 231.92961 108.70054"
   version="1.1"
   id="svg5"
   inkscape:version="1.1.2 (0a00cf5339, 2022-02-04)"
   sodipodi:docname="plugin-foundations.svg"
   xmlns:inkscape="http://www.inkscape.org/namespaces/inkscape"
   xmlns:sodipodi="http://sodipodi.sourceforge.net/DTD/sodipodi-0.dtd"
   xmlns:xlink="http://www.w3.org/1999/xlink"
   xmlns="http://www.w3.org/2000/svg"
   xmlns:svg="http://www.w3.org/2000/svg">
  <sodipodi:namedview
     id="namedview7"
     pagecolor="#ffffff"
     bordercolor="#666666"
     borderopacity="1.0"
     inkscape:pageshadow="2"
     inkscape:pageopacity="0.0"
     inkscape:pagecheckerboard="0"
     inkscape:document-units="mm"
     showgrid="false"
     fit-margin-top="10"
     fit-margin-left="10"
     fit-margin-right="10"
     fit-margin-bottom="10"
     inkscape:zoom="0.64"
     inkscape:cx="731.25"
     inkscape:cy="271.875"
     inkscape:window-width="1920"
     inkscape:window-height="1132"
     inkscape:window-x="1920"
     inkscape:window-y="0"
     inkscape:window-maximized="1"
     inkscape:current-layer="layer1" />
  <defs
     id="defs2">
    <g
       id="layer"
       transform="translate(50,50)">
      <g
         transform="scale(0.7071,0.5)"
         id="g874">
        <g
           transform="translate(-50,-50)"
           id="g872">
          <rect
             width="100"
             height="100"
             rx="15"
             transform="rotate(45,50,50)"
             id="rect870"
             x="0"
             y="0" />
        </g>
      </g>
    </g>
    <polygon
       id="path-1"
       points="0.569,35.347532 0.569,0.6241 27.999,0.6241 27.999,35.347532 " />
    <polygon
       id="path-3"
       points="31.9549,40.7928 0.4579,40.7928 0.4579,0.791 31.9549,0.791 " />
    <polygon
       id="path-5"
       points="40.0013,0.9988 40.0013,32.4948 4.3232562e-16,32.4948 4.3232562e-16,0.9988 " />
    <polygon
       id="path-7"
       points="0.2073,0.9989 31.7043,0.9989 31.7043,40.953 0.2073,40.953 " />
    <linearGradient
       id="SVGID_1_"
       gradientUnits="userSpaceOnUse"
       x1="-4516.6152"
       y1="-2338.7222"
       x2="-4108.4111"
       y2="-1861.3982"
       gradientTransform="matrix(0.01547211,-0.0331812,0.0331812,0.01547211,1183.8855,365.91353)">
      <stop
         offset="0"
         style="stop-color:#F69923"
         id="stop58" />
      <stop
         offset="0.3123"
         style="stop-color:#F79A23"
         id="stop60" />
      <stop
         offset="0.8383"
         style="stop-color:#E97826"
         id="stop62" />
    </linearGradient>
    <linearGradient
       id="SVGID_2_"
       gradientUnits="userSpaceOnUse"
       x1="-7537.7339"
       y1="-2391.4075"
       x2="-4625.4141"
       y2="-2391.4075"
       gradientTransform="matrix(0.01547211,-0.0331812,0.0331812,0.01547211,1183.8855,365.91353)">
      <stop
         offset="0.3233"
         style="stop-color:#9E2064"
         id="stop83" />
      <stop
         offset="0.6302"
         style="stop-color:#C92037"
         id="stop85" />
      <stop
         offset="0.7514"
         style="stop-color:#CD2335"
         id="stop87" />
      <stop
         offset="1"
         style="stop-color:#E97826"
         id="stop89" />
    </linearGradient>
    <linearGradient
       id="SVGID_3_"
       gradientUnits="userSpaceOnUse"
       x1="-7186.1777"
       y1="-2099.3059"
       x2="-5450.7183"
       y2="-2099.3059"
       gradientTransform="matrix(0.01547211,-0.0331812,0.0331812,0.01547211,1183.8855,365.91353)">
      <stop
         offset="0"
         style="stop-color:#282662"
         id="stop94" />
      <stop
         offset="9.548390e-02"
         style="stop-color:#662E8D"
         id="stop96" />
      <stop
         offset="0.7882"
         style="stop-color:#9F2064"
         id="stop98" />
      <stop
         offset="0.9487"
         style="stop-color:#CD2032"
         id="stop100" />
    </linearGradient>
    <linearGradient
       id="SVGID_4_"
       gradientUnits="userSpaceOnUse"
       x1="-7374.1626"
       y1="-2418.5454"
       x2="-4461.8428"
       y2="-2418.5454"
       gradientTransform="matrix(0.01547211,-0.0331812,0.0331812,0.01547211,1183.8855,365.91353)">
      <stop
         offset="0.3233"
         style="stop-color:#9E2064"
         id="stop105" />
      <stop
         offset="0.6302"
         style="stop-color:#C92037"
         id="stop107" />
      <stop
         offset="0.7514"
         style="stop-color:#CD2335"
         id="stop109" />
      <stop
         offset="1"
         style="stop-color:#E97826"
         id="stop111" />
    </linearGradient>
    <linearGradient
       id="SVGID_5_"
       gradientUnits="userSpaceOnUse"
       x1="-7161.7642"
       y1="-2379.1431"
       x2="-5631.2524"
       y2="-2379.1431"
       gradientTransform="matrix(0.01547211,-0.0331812,0.0331812,0.01547211,1183.8855,365.91353)">
      <stop
         offset="0"
         style="stop-color:#282662"
         id="stop116" />
      <stop
         offset="9.548390e-02"
         style="stop-color:#662E8D"
         id="stop118" />
      <stop
         offset="0.7882"
         style="stop-color:#9F2064"
         id="stop120" />
      <stop
         offset="0.9487"
         style="stop-color:#CD2032"
         id="stop122" />
    </linearGradient>
    <linearGradient
       id="SVGID_6_"
       gradientUnits="userSpaceOnUse"
       x1="-7374.1626"
       y1="-2117.1309"
       x2="-4461.8428"
       y2="-2117.1309"
       gradientTransform="matrix(0.01547211,-0.0331812,0.0331812,0.01547211,1183.8855,365.91353)">
      <stop
         offset="0.3233"
         style="stop-color:#9E2064"
         id="stop127" />
      <stop
         offset="0.6302"
         style="stop-color:#C92037"
         id="stop129" />
      <stop
         offset="0.7514"
         style="stop-color:#CD2335"
         id="stop131" />
      <stop
         offset="1"
         style="stop-color:#E97826"
         id="stop133" />
    </linearGradient>
    <linearGradient
       id="SVGID_7_"
       gradientUnits="userSpaceOnUse"
       x1="-7554.8232"
       y1="-2132.0981"
       x2="-4642.5034"
       y2="-2132.0981"
       gradientTransform="matrix(0.01547211,-0.0331812,0.0331812,0.01547211,1183.8855,365.91353)">
      <stop
         offset="0.3233"
         style="stop-color:#9E2064"
         id="stop138" />
      <stop
         offset="0.6302"
         style="stop-color:#C92037"
         id="stop140" />
      <stop
         offset="0.7514"
         style="stop-color:#CD2335"
         id="stop142" />
      <stop
         offset="1"
         style="stop-color:#E97826"
         id="stop144" />
    </linearGradient>
    <linearGradient
       id="SVGID_8_"
       gradientUnits="userSpaceOnUse"
       x1="-7374.1626"
       y1="-2027.484"
       x2="-4461.8433"
       y2="-2027.484"
       gradientTransform="matrix(0.01547211,-0.0331812,0.0331812,0.01547211,1183.8855,365.91353)">
      <stop
         offset="0.3233"
         style="stop-color:#9E2064"
         id="stop153" />
      <stop
         offset="0.6302"
         style="stop-color:#C92037"
         id="stop155" />
      <stop
         offset="0.7514"
         style="stop-color:#CD2335"
         id="stop157" />
      <stop
         offset="1"
         style="stop-color:#E97826"
         id="stop159" />
    </linearGradient>
    <linearGradient
       id="SVGID_9_"
       gradientUnits="userSpaceOnUse"
       x1="-7374.1626"
       y1="-2037.7417"
       x2="-4461.8433"
       y2="-2037.7417"
       gradientTransform="matrix(0.01547211,-0.0331812,0.0331812,0.01547211,1183.8855,365.91353)">
      <stop
         offset="0.3233"
         style="stop-color:#9E2064"
         id="stop168" />
      <stop
         offset="0.6302"
         style="stop-color:#C92037"
         id="stop170" />
      <stop
         offset="0.7514"
         style="stop-color:#CD2335"
         id="stop172" />
      <stop
         offset="1"
         style="stop-color:#E97826"
         id="stop174" />
    </linearGradient>
    <linearGradient
       id="SVGID_10_"
       gradientUnits="userSpaceOnUse"
       x1="-5738.0635"
       y1="-2039.799"
       x2="-5094.3457"
       y2="-2039.799"
       gradientTransform="matrix(0.01547211,-0.0331812,0.0331812,0.01547211,1183.8855,365.91353)">
      <stop
         offset="0.3233"
         style="stop-color:#9E2064"
         id="stop183" />
      <stop
         offset="0.6302"
         style="stop-color:#C92037"
         id="stop185" />
      <stop
         offset="0.7514"
         style="stop-color:#CD2335"
         id="stop187" />
      <stop
         offset="1"
         style="stop-color:#E97826"
         id="stop189" />
    </linearGradient>
  </defs>
  <g
     inkscape:label="Layer 1"
     inkscape:groupmode="layer"
     id="layer1"
     transform="translate(13.858363,-28.901979)">
    <g
       id="g1762"
       transform="translate(0,-0.79647936)">
      <g
         stroke="#12120d"
         stroke-miterlimit="10"
         id="g836"
         transform="matrix(0.10134545,0,0,0.10134545,-3.8040498,96.156582)">
        <path
           fill="#f48e00"
           d="m 13.421,202.756 a 141.851,141.851 0 0 0 20.186,31.023 h 215.54 a 141.884,141.884 0 0 0 20.185,-31.023 z"
           id="path824" />
        <path
           fill="#ffed00"
           d="m 0,151.732 a 141.263,141.263 0 0 0 5.681,31.023 h 271.392 a 141.285,141.285 0 0 0 5.681,-31.023 z"
           id="path826" />
        <path
           fill="#00943d"
           d="M 5.683,100.709 A 141.287,141.287 0 0 0 0,131.732 h 282.752 a 141.264,141.264 0 0 0 -5.682,-31.023 z"
           id="path828" />
        <path
           fill="#e7000e"
           d="m 54.581,253.779 c 23.982,18.604 54.093,29.685 86.796,29.685 32.702,0 62.812,-11.081 86.795,-29.685 z"
           id="path830" />
        <path
           fill="#272c82"
           d="M 33.61,49.686 A 141.912,141.912 0 0 0 13.424,80.709 H 269.33 A 141.88,141.88 0 0 0 249.143,49.686 Z"
           id="path832" />
        <path
           fill="#611e82"
           d="M 228.169,29.686 C 204.188,11.081 174.079,0 141.377,0 108.675,0 78.565,11.081 54.583,29.686 Z"
           id="path834" />
      </g>
      <g
         id="g905"
         transform="matrix(0.22327293,0,0,0.22327293,-14.551187,147.95104)">
        <g
           id="g1713"
           transform="matrix(1.8950111,0,0,1.8950111,262.47625,-262.39544)">
          <g
             fill="#ffffff"
             transform="translate(0,10)"
             id="g881">
            <use
               xlink:href="#layer"
               id="use879"
               x="0"
               y="0"
               width="100%"
               height="100%" />
          </g>
          <g
             fill="#333333"
             id="g885">
            <use
               xlink:href="#layer"
               id="use883"
               x="0"
               y="0"
               width="100%"
               height="100%" />
          </g>
          <g
             fill="#00aaff"
             transform="translate(0,-10)"
             id="g889">
            <use
               xlink:href="#layer"
               id="use887"
               x="0"
               y="0"
               width="100%"
               height="100%" />
          </g>
        </g>
      </g>
    </g>
    <g
       id="Page-1"
       transform="matrix(0.41681924,0,0,0.41681924,100.5323,91.767173)"
       style="fill:none;fill-rule:evenodd;stroke:none;stroke-width:1">
      <g
         id="Group-25"
         transform="translate(0,0.2086)">
        <path
           d="m 113.9759,56.448 c 1.262,-0.795 2.29,-1.823 3.038,-3.132 0.747,-1.307 1.121,-2.71 1.121,-4.252 V 36.68 c 0,-1.495 -0.374,-2.943 -1.121,-4.252 -0.748,-1.309 -1.776,-2.383 -3.038,-3.131 -1.262,-0.794 -2.617,-1.168 -4.112,-1.168 -1.449,0 -2.851,0.374 -4.113,1.168 -1.261,0.795 -2.289,1.822 -3.037,3.131 -0.748,1.309 -1.121,2.71 -1.121,4.252 v 12.384 c 0,1.495 0.373,2.945 1.121,4.252 0.748,1.309 1.776,2.384 3.037,3.132 1.262,0.794 2.618,1.168 4.113,1.168 1.448,-0.047 2.85,-0.421 4.112,-1.168 m -11.776,5.888 c -2.336,-1.356 -4.205,-3.225 -5.561,-5.562 -1.355,-2.336 -2.056,-4.906 -2.056,-7.71 V 36.68 c 0,-2.803 0.701,-5.374 2.056,-7.71 1.356,-2.336 3.225,-4.206 5.561,-5.561 2.337,-1.355 4.907,-2.056 7.664,-2.056 2.757,0 5.327,0.701 7.664,2.056 2.336,1.355 4.205,3.225 5.561,5.561 1.355,2.336 2.056,4.907 2.056,7.71 v 12.384 c 0,2.804 -0.701,5.374 -2.056,7.71 -1.356,2.337 -3.225,4.206 -5.561,5.562 -2.337,1.355 -4.907,2.055 -7.664,2.055 -2.757,0 -5.327,-0.7 -7.664,-2.055"
           id="Fill-1"
           fill="#4cb05c" />
        <path
           d="m 136.3602,63.3172 c -2.01,-0.654 -3.879,-1.636 -5.607,-2.804 -0.188,-0.093 -0.328,-0.327 -0.421,-0.607 -0.094,-0.281 -0.047,-0.562 0.047,-0.795 l 2.008,-3.645 c 0.235,-0.467 0.609,-0.701 1.076,-0.701 0.327,0 0.607,0.094 0.887,0.234 2.898,1.822 5.562,2.711 8.085,2.711 2.056,0 3.645,-0.515 4.813,-1.497 1.169,-0.981 1.776,-2.29 1.776,-3.877 0,-1.029 -0.28,-1.916 -0.888,-2.665 -0.561,-0.701 -1.355,-1.308 -2.29,-1.822 -0.981,-0.514 -2.383,-1.122 -4.206,-1.869 l -1.681,-0.701 c -2.618,-1.122 -4.814,-2.57 -6.59,-4.299 -1.776,-1.729 -2.71,-4.3 -2.71,-7.664 0,-2.384 0.514,-4.44 1.589,-6.262 1.074,-1.823 2.523,-3.225 4.439,-4.253 1.869,-1.028 4.066,-1.495 6.542,-1.495 2.057,0 4.066,0.327 6.075,1.028 2.01,0.701 3.832,1.635 5.468,2.804 0.187,0.093 0.327,0.327 0.42,0.607 0.094,0.28 0.047,0.561 -0.047,0.795 l -1.915,3.645 c -0.234,0.467 -0.608,0.701 -1.122,0.701 -0.327,0 -0.607,-0.094 -0.888,-0.234 -1.495,-0.981 -2.944,-1.682 -4.299,-2.103 -1.355,-0.42 -2.57,-0.654 -3.645,-0.654 -1.729,0 -3.084,0.467 -4.112,1.402 -0.982,0.935 -1.495,2.149 -1.495,3.645 0,1.495 0.56,2.757 1.635,3.738 1.121,0.982 2.851,1.963 5.281,2.991 0.327,0.094 1.682,0.654 3.971,1.589 2.29,0.934 4.113,2.336 5.468,4.159 1.356,1.823 2.01,3.972 2.01,6.449 0,2.383 -0.562,4.533 -1.683,6.402 -1.121,1.869 -2.71,3.318 -4.766,4.393 -2.056,1.074 -4.393,1.589 -7.057,1.589 -2.103,0.093 -4.158,-0.281 -6.168,-0.935"
           id="Fill-3"
           fill="#4cb05c" />
        <path
           d="m 169.0711,62.3357 c -2.336,-1.355 -4.158,-3.225 -5.561,-5.562 -1.355,-2.335 -2.055,-4.906 -2.055,-7.709 v -12.384 c 0,-2.804 0.7,-5.374 2.055,-7.711 1.356,-2.336 3.225,-4.206 5.561,-5.561 2.337,-1.355 4.86,-2.056 7.664,-2.056 2.431,0 4.673,0.42 6.776,1.309 2.056,0.887 3.832,2.149 5.328,3.785 0.233,0.28 0.327,0.607 0.327,0.981 0,0.374 -0.141,0.795 -0.468,1.168 l -2.523,2.664 c -0.328,0.327 -0.608,0.467 -0.935,0.467 -0.373,0 -0.747,-0.186 -1.027,-0.514 -1.916,-2.056 -4.394,-3.084 -7.384,-3.084 -1.449,0 -2.851,0.374 -4.112,1.168 -1.262,0.795 -2.291,1.823 -3.038,3.131 -0.748,1.309 -1.122,2.711 -1.122,4.253 v 12.384 c 0,1.495 0.374,2.944 1.122,4.251 0.747,1.309 1.776,2.384 3.038,3.132 1.261,0.794 2.617,1.168 4.112,1.168 1.448,0 2.85,-0.374 4.112,-1.122 1.262,-0.747 2.29,-1.728 2.99,-3.037 0.748,-1.262 1.076,-2.664 1.076,-4.159 v -2.851 h -7.757 c -0.327,0 -0.655,-0.093 -0.889,-0.327 -0.233,-0.233 -0.327,-0.513 -0.327,-0.888 v -4.159 c 0,-0.327 0.094,-0.654 0.327,-0.887 0.234,-0.234 0.515,-0.328 0.889,-0.328 h 12.196 c 0.701,0 1.262,0.234 1.775,0.702 0.468,0.467 0.702,1.074 0.702,1.775 v 6.73 c 0,2.803 -0.702,5.374 -2.056,7.709 -1.356,2.337 -3.225,4.207 -5.562,5.562 -2.336,1.355 -4.859,2.056 -7.57,2.056 -2.804,0 -5.327,-0.701 -7.664,-2.056"
           id="Fill-5"
           fill="#003a40" />
        <path
           d="m 218.3729,43.5965 v -0.514 c 0,-1.916 -0.654,-3.505 -2.01,-4.86 -1.308,-1.355 -2.944,-2.009 -4.813,-2.009 -1.869,0 -3.505,0.654 -4.814,2.009 -1.308,1.355 -2.009,2.944 -2.009,4.86 v 0.514 z m -13.692,18.179 c -2.104,-1.215 -3.786,-2.945 -5,-5.047 -1.216,-2.104 -1.87,-4.44 -1.87,-6.963 v -6.262 c 0,-2.524 0.608,-4.86 1.87,-6.963 1.214,-2.103 2.896,-3.832 5,-5.047 2.102,-1.215 4.392,-1.869 6.916,-1.869 2.523,0 4.813,0.607 6.916,1.869 2.102,1.215 3.785,2.944 5,5.047 1.214,2.149 1.869,4.439 1.869,6.963 v 3.878 c 0,0.701 -0.234,1.262 -0.7,1.777 -0.468,0.466 -1.076,0.7 -1.777,0.7 h -18.085 v 0.28 c 0,1.916 0.655,3.505 2.01,4.86 1.355,1.356 2.944,2.01 4.814,2.01 h 9.159 c 0.327,0 0.654,0.14 0.887,0.374 0.234,0.234 0.328,0.514 0.328,0.888 v 4.205 c 0,0.327 -0.094,0.654 -0.328,0.889 -0.233,0.233 -0.513,0.327 -0.887,0.327 h -9.159 c -2.571,-0.047 -4.908,-0.701 -6.963,-1.916 z"
           id="Fill-7"
           fill="#003a40" />
        <g
           id="Group-11"
           transform="translate(230,29)">
          <mask
             id="mask-2"
             fill="#ffffff">
            <use
               xlink:href="#path-1"
               id="use921"
               x="0"
               y="0"
               width="100%"
               height="100%" />
          </mask>
          <g
             id="Clip-10" />
          <path
             d="m 19.074,26.6531 c 1.309,-1.355 2.01,-2.944 2.01,-4.86 v -7.617 c 0,-1.916 -0.655,-3.505 -2.01,-4.86 -1.308,-1.355 -2.943,-2.01 -4.812,-2.01 -1.87,0 -3.505,0.655 -4.814,2.01 -1.309,1.355 -2.01,2.944 -2.01,4.86 v 7.617 c 0,1.916 0.655,3.505 2.01,4.86 1.309,1.355 2.944,2.01 4.814,2.01 1.916,0 3.504,-0.701 4.812,-2.01 m -11.683,6.916 c -2.102,-1.215 -3.785,-2.851 -5,-4.953 -1.214,-2.104 -1.822,-4.346 -1.822,-6.776 v -7.664 c 0,-2.43 0.608,-4.72 1.822,-6.776 1.215,-2.103 2.898,-3.739 5,-4.954 2.104,-1.214 4.393,-1.822 6.916,-1.822 2.525,0 4.814,0.608 6.917,1.822 2.103,1.215 3.786,2.898 5,4.954 1.215,2.103 1.87,4.346 1.87,6.776 v 7.617 c 0,2.43 -0.608,4.719 -1.87,6.776 -1.214,2.103 -2.897,3.738 -5,4.953 -2.103,1.215 -4.393,1.823 -6.917,1.823 -2.523,0.046 -4.859,-0.561 -6.916,-1.776"
             id="Fill-9"
             fill="#003a40"
             mask="url(#mask-2)" />
        </g>
        <g
           id="Group-14"
           transform="translate(8)">
          <mask
             id="mask-4"
             fill="#ffffff">
            <use
               xlink:href="#path-3"
               id="use927"
               x="0"
               y="0"
               width="100%"
               height="100%" />
          </mask>
          <g
             id="Clip-13" />
          <path
             d="m 31.9549,17.7078 v -8.412 -8.505 l -5.281,9.253 c -14.393,3.225 -25.281,15.608 -26.216,30.749 h 8.458 c 1.029,-12.29 10.795,-22.057 23.039,-23.085"
             id="Fill-12"
             fill="#4cb05c"
             mask="url(#mask-4)" />
        </g>
        <g
           id="Group-17"
           transform="translate(0,44)">
          <mask
             id="mask-6"
             fill="#ffffff">
            <use
               xlink:href="#path-5"
               id="use933"
               x="0"
               y="0"
               width="100%"
               height="100%" />
          </mask>
          <g
             id="Clip-16" />
          <path
             d="M 16.9163,0.9988 H 8.5053 -7e-4 l 9.253,5.28 c 3.225,14.394 15.608,25.282 30.749,26.216 v -8.458 c -12.29,-1.028 -22.057,-10.795 -23.085,-23.038"
             id="Fill-15"
             fill="#003a40"
             mask="url(#mask-6)" />
        </g>
        <path
           d="m 67.2454,40.7459 h 8.458 8.505 l -9.253,-5.28 c -3.224,-14.393 -15.607,-25.282 -30.748,-26.216 v 8.458 c 12.243,1.028 22.01,10.795 23.038,23.038"
           id="Fill-18"
           fill="#003a40" />
        <g
           id="Group-22"
           transform="translate(44,44)">
          <mask
             id="mask-8"
             fill="#ffffff">
            <use
               xlink:href="#path-7"
               id="use940"
               x="0"
               y="0"
               width="100%"
               height="100%" />
          </mask>
          <g
             id="Clip-21" />
          <path
             d="m 0.2073,24.0369 v 8.458 8.505 l 5.28,-9.253 c 14.393,-3.224 25.282,-15.607 26.217,-30.748 h -8.459 c -1.028,12.243 -10.795,22.01 -23.038,23.038"
             id="Fill-20"
             fill="#4cb05c"
             mask="url(#mask-8)" />
        </g>
        <path
           d="m 42.0574,44.6717 c -1.028,0 -1.822,-0.841 -1.822,-1.823 0,-1.028 0.841,-1.822 1.822,-1.822 0.981,0 1.823,0.841 1.823,1.822 0,0.982 -0.795,1.823 -1.823,1.823 z m 2.617,-4.393 -15.608,-10.421 10.421,15.608 15.608,10.421 z"
           id="Fill-23"
           fill="#003a40" />
      </g>
      <polygon
         id="Fill-26"
         fill="#4cb05c"
         points="39.3936,49.1792 42.0576,65.1612 44.7206,49.1792 39.4876,45.6742 35.9826,40.4412 20.0006,43.1042 35.9826,45.7212 29.0666,56.0952 " />
      <polygon
         id="Fill-27"
         fill="#4cb05c"
         points="44.6745,40.4868 48.1795,45.7208 64.1615,43.0578 48.1795,40.4408 55.0955,30.0658 44.7215,36.9828 42.0575,21.0008 39.4405,36.9828 " />
    </g>
    <g
       style="clip-rule:evenodd;fill-rule:evenodd;stroke-linejoin:round;stroke-miterlimit:2"
       id="g1061"
       transform="matrix(0.76873282,0,0,0.76873282,3.6332769,37.01172)">
      <path
         d="M 66.07,10 C 59.6,10 53.64,13.64 47.88,20 42.22,13.54 36.16,10 29.39,10 18.18,10 10,18 10,28.77 c 0,10.77 8.18,18.67 19.39,18.67 6.89,0 12.23,-3.23 18.19,-9.67 5.76,6.46 11.62,9.69 18.49,9.69 C 77.28,47.44 85.46,39.57 85.46,28.77 85.46,17.97 77.28,10 66.07,10 Z m -36.6,26.14 c -4.75,0 -7.58,-3.13 -7.58,-7.27 0,-4.14 2.83,-7.36 7.58,-7.36 4,0 7.27,3.22 10.81,7.56 -3.34,4.04 -6.87,7.07 -10.81,7.07 z m 36.26,0 c -3.94,0 -7.27,-3.13 -10.81,-7.27 3.64,-4.34 6.77,-7.36 10.81,-7.36 4.75,0 7.55,3.26 7.55,7.36 0,4.1 -2.8,7.27 -7.55,7.27 z"
         style="fill:#484848;fill-rule:nonzero"
         id="path1294" />
      <path
         d="m 56.02,44.77 7.54,-9 c -3,-0.9 -5.77,-3.6 -8.64,-6.95 l -7.34,8.95 c 2.403,2.788 5.256,5.154 8.44,7 z"
         style="fill:#20a7c9;fill-rule:nonzero"
         id="path1296" />
      <path
         d="m 47.88,19.99 c -2.387,-2.828 -5.222,-5.247 -8.39,-7.16 l -7.55,9.1 c 2.87,1 5.41,3.58 8.11,6.87 l 0.3,0.21 z"
         style="fill:#20a7c9;fill-rule:nonzero"
         id="path1322" />
    </g>
    <g
       id="g1705"
       transform="matrix(0.38173689,0,0,0.38173689,-275.91121,-140.75116)">
      <path
         fill="#6d6e71"
         d="m 1256.6265,501.66004 c 0.5602,0.56016 0.8384,1.23381 0.8384,2.02096 0,0.78715 -0.2782,1.46081 -0.8384,2.02829 -0.5602,0.56382 -1.2375,0.84573 -2.0356,0.84573 -0.7982,0 -1.4718,-0.27825 -2.0283,-0.83841 -0.5528,-0.56016 -0.8311,-1.23381 -0.8311,-2.02096 0,-0.78715 0.2783,-1.46081 0.8384,-2.02829 0.5602,-0.56382 1.2338,-0.84573 2.0283,-0.84573 0.7908,0 1.4681,0.27825 2.0283,0.83841 z m -0.2416,3.81128 c 0.4869,-0.49792 0.7322,-1.09103 0.7322,-1.783 0,-0.69196 -0.2416,-1.28141 -0.7249,-1.77566 -0.4833,-0.4906 -1.0764,-0.7359 -1.7793,-0.7359 -0.703,0 -1.2961,0.2453 -1.7831,0.73956 -0.4869,0.49426 -0.7285,1.08737 -0.7285,1.78299 0,0.69562 0.2416,1.28873 0.7212,1.77933 0.4797,0.49059 1.0728,0.73589 1.7757,0.73589 0.7029,0 1.2961,-0.24896 1.7867,-0.74321 z m -0.4028,-2.33583 c 0,0.51256 -0.2233,0.83475 -0.6736,0.96655 l 0.8237,1.11665 h -0.6663 l -0.7432,-1.03611 h -0.681 v 1.03611 h -0.5382 v -3.09735 h 1.1643 c 0.4686,0 0.8054,0.0806 1.0104,0.24164 0.2051,0.16109 0.3039,0.41737 0.3039,0.77251 z m -0.6919,0.43568 c 0.1098,-0.0879 0.1611,-0.23798 0.1611,-0.43934 0,-0.20137 -0.055,-0.34415 -0.1648,-0.4247 -0.1098,-0.0805 -0.3075,-0.11716 -0.5858,-0.11716 h -0.659 v 1.11666 h 0.6407 c 0.2966,-0.004 0.5016,-0.0476 0.6078,-0.13546 z"
         id="path2"
         style="stroke-width:0.0366117" />
      <path
         fill="#6d6e71"
         d="m 1062.5441,488.91916 v 5.68946 h -0.7322 v -5.68946 h -2.0796 v -0.70295 h 4.9024 v 0.70295 z"
         id="path4"
         style="stroke-width:0.0366117" />
      <path
         fill="#6d6e71"
         d="m 1072.7442,494.60862 v -2.81544 h -3.8516 v 2.81544 h -0.7322 v -6.39607 h 0.7322 v 2.88867 h 3.8516 v -2.88867 h 0.7322 v 6.39607 z"
         id="path6"
         style="stroke-width:0.0366117" />
      <path
         fill="#6d6e71"
         d="m 1078.5727,488.91916 v 2.10151 h 3.2255 v 0.70295 h -3.2255 v 2.18938 h 3.7271 v 0.69562 h -4.4593 v -6.39607 h 4.3422 v 0.70295 h -3.61 z"
         id="path8"
         style="stroke-width:0.0366117" />
      <path
         fill="#d22128"
         d="m 1054.1564,538.44016 15.2781,-36.52384 h 2.9326 l 15.278,36.52384 h -3.8589 l -4.7338,-11.41919 h -16.4094 l -4.6827,11.41919 z m 16.7718,-32.30617 -7.5091,18.0569 h 14.8168 z"
         id="path10"
         style="stroke-width:0.0366117" />
      <path
         fill="#d22128"
         d="m 1091.5882,538.44016 v -36.52384 h 15.1243 c 6.2752,0 10.8041,5.81394 10.8041,11.47045 0,5.96771 -4.2177,11.57296 -10.4929,11.57296 h -11.8842 v 13.47677 h -3.5513 z m 3.5513,-16.66931 h 11.6755 c 4.3202,0 7.099,-3.96139 7.099,-8.38408 0,-4.58013 -3.3939,-8.28157 -7.4065,-8.28157 h -11.368 z"
         id="path12"
         style="stroke-width:0.0366117" />
      <path
         fill="#d22128"
         d="m 1115.5176,538.44016 15.2781,-36.52384 h 2.9326 l 15.2781,36.52384 h -3.8589 l -4.7339,-11.41919 h -16.4094 l -4.6826,11.41919 z m 16.7718,-32.30617 -7.509,18.0569 h 14.8167 z"
         id="path14"
         style="stroke-width:0.0366117" />
      <path
         fill="#d22128"
         d="m 1166.2907,501.70763 c 6.4803,0 11.2142,3.29139 13.4768,7.97403 l -2.8813,1.75004 c -2.3139,-4.8364 -6.8428,-6.48027 -10.8041,-6.48027 -8.7466,0 -13.5281,7.82026 -13.5281,15.17556 0,8.07654 5.9165,15.38058 13.6818,15.38058 4.1152,0 8.9516,-2.05758 11.2655,-6.79148 l 2.9838,1.54136 c -2.3651,5.45148 -8.849,8.48659 -14.4543,8.48659 -10.0316,0 -17.0794,-9.56664 -17.0794,-18.82574 0,-8.79414 6.3302,-18.21067 17.3393,-18.21067 z"
         id="path16"
         style="stroke-width:0.0366117" />
      <path
         fill="#d22128"
         d="m 1214.318,501.91632 v 36.52384 h -3.6026 V 521.3608 h -21.6558 v 17.07936 h -3.5477 v -36.52384 h 3.5477 v 16.2556 h 21.6558 v -16.2556 z"
         id="path18"
         style="stroke-width:0.0366117" />
      <path
         fill="#d22128"
         d="m 1247.1038,535.24762 v 3.18888 h -24.5372 v -36.52018 h 24.0759 v 3.18888 h -20.5246 v 13.16923 h 17.9032 v 3.03511 h -17.9032 v 13.94174 h 20.9859 z"
         id="path20"
         style="stroke-width:0.0366117" />
      <path
         fill="#6d6e71"
         d="m 1057.5649,546.17256 c 0.4321,0.12814 0.8128,0.30388 1.135,0.51989 l -0.3771,0.82742 c -0.3295,-0.21967 -0.681,-0.38076 -1.0581,-0.4906 -0.3734,-0.10617 -0.7322,-0.16109 -1.069,-0.16109 -0.498,0 -0.897,0.0879 -1.1936,0.26727 -0.2965,0.17939 -0.4466,0.43201 -0.4466,0.75786 0,0.27825 0.084,0.51256 0.2489,0.69562 0.1648,0.18306 0.3735,0.32585 0.6224,0.42836 0.249,0.10251 0.5895,0.21967 1.0251,0.35147 0.5272,0.16842 0.9519,0.32585 1.2705,0.47229 0.3221,0.14645 0.5967,0.36246 0.8237,0.65169 0.227,0.28557 0.3405,0.66633 0.3405,1.13497 0,0.42835 -0.1171,0.79813 -0.3478,1.12031 -0.2306,0.31852 -0.5602,0.56749 -0.9812,0.74322 -0.4247,0.17574 -0.9116,0.26361 -1.4645,0.26361 -0.5528,0 -1.0873,-0.10618 -1.6072,-0.31853 -0.5199,-0.21234 -0.9666,-0.49792 -1.34,-0.85671 l 0.3917,-0.79081 c 0.3515,0.34415 0.7579,0.61141 1.2192,0.80179 0.4613,0.19038 0.908,0.28557 1.3473,0.28557 0.5602,0 0.9995,-0.10983 1.3217,-0.32584 0.3222,-0.21601 0.4833,-0.5089 0.4833,-0.87502 0,-0.28557 -0.084,-0.52355 -0.2526,-0.71027 -0.1684,-0.18672 -0.3771,-0.3295 -0.6261,-0.43568 -0.249,-0.10251 -0.5894,-0.21967 -1.0251,-0.35147 -0.5199,-0.15377 -0.9409,-0.30388 -1.2668,-0.44666 -0.3258,-0.14279 -0.6004,-0.35514 -0.8238,-0.64071 -0.2233,-0.28191 -0.3368,-0.65535 -0.3368,-1.12032 0,-0.39906 0.1099,-0.74687 0.3295,-1.04709 0.2197,-0.30022 0.5346,-0.53453 0.9373,-0.69928 0.4064,-0.16476 0.8713,-0.24896 1.3986,-0.24896 0.4503,0.004 0.886,0.0696 1.3216,0.1977 z"
         id="path22"
         style="stroke-width:0.0366117" />
      <path
         fill="#6d6e71"
         d="m 1069.0061,546.50939 c 0.6151,0.34415 1.1057,0.81644 1.4645,1.40589 0.3588,0.59311 0.5418,1.24113 0.5418,1.9514 0,0.71393 -0.1794,1.36928 -0.5418,1.96239 -0.3588,0.59677 -0.8494,1.0654 -1.4645,1.41321 -0.6151,0.34781 -1.2924,0.52355 -2.021,0.52355 -0.7432,0 -1.4205,-0.17208 -2.0392,-0.52355 -0.6151,-0.34781 -1.1057,-0.8201 -1.4645,-1.41321 -0.3588,-0.59677 -0.5419,-1.24846 -0.5419,-1.96239 0,-0.71393 0.1794,-1.36562 0.5419,-1.95873 0.3588,-0.59311 0.8494,-1.06174 1.4645,-1.40222 0.615,-0.34416 1.296,-0.51257 2.0392,-0.51257 0.7286,-0.004 1.4023,0.16841 2.021,0.51623 z m -3.5953,0.72857 c -0.4796,0.27093 -0.864,0.6407 -1.1496,1.10201 -0.2856,0.46131 -0.432,0.97021 -0.432,1.52671 0,0.56016 0.1428,1.07272 0.432,1.53769 0.2856,0.46497 0.67,0.83475 1.1496,1.10568 0.4796,0.27092 1.0032,0.40639 1.5707,0.40639 0.5674,0 1.0873,-0.13547 1.5633,-0.40639 0.4759,-0.27093 0.853,-0.63705 1.1386,-1.10568 0.2819,-0.46497 0.4247,-0.97753 0.4247,-1.53769 0,-0.56016 -0.1428,-1.06906 -0.4247,-1.53037 -0.2819,-0.46131 -0.6627,-0.82742 -1.1386,-1.09835 -0.476,-0.27093 -0.9959,-0.41005 -1.5597,-0.41005 -0.5675,0 -1.091,0.13546 -1.5743,0.41005 z"
         id="path24"
         style="stroke-width:0.0366117" />
      <path
         fill="#6d6e71"
         d="m 1076.5628,546.86086 v 2.70927 h 3.6025 v 0.84939 h -3.6025 v 3.30237 h -0.8824 v -7.71042 h 4.8987 v 0.84939 z"
         id="path26"
         style="stroke-width:0.0366117" />
      <path
         fill="#6d6e71"
         d="m 1087.733,546.86086 v 6.86103 h -0.8824 v -6.86103 h -2.5042 v -0.84939 h 5.9091 v 0.84939 z"
         id="path28"
         style="stroke-width:0.0366117" />
      <path
         fill="#6d6e71"
         d="m 1101.6528,553.72189 -2.0796,-6.49491 -2.1088,6.49491 h -0.897 l -2.5811,-7.71042 h 0.9482 l 2.1198,6.68896 2.0906,-6.67798 0.8823,-0.011 2.1125,6.68897 2.0905,-6.68897 h 0.9153 l -2.5848,7.71043 z"
         id="path30"
         style="stroke-width:0.0366117" />
      <path
         fill="#6d6e71"
         d="m 1109.5426,551.77415 -0.8604,1.94774 h -0.9372 l 3.4561,-7.71042 h 0.9153 l 3.4452,7.71042 h -0.9556 l -0.8604,-1.94774 z m 2.0942,-4.75952 -1.7171,3.91013 h 3.4561 z"
         id="path32"
         style="stroke-width:0.0366117" />
      <path
         fill="#6d6e71"
         d="m 1123.228,551.26525 c -0.2196,0.0146 -0.3917,0.022 -0.5162,0.022 h -2.0502 v 2.43467 h -0.8787 v -7.71042 h 2.9289 c 0.9592,0 1.7061,0.22699 2.2407,0.67731 0.5308,0.45033 0.7981,1.09103 0.7981,1.9148 0,0.62972 -0.1501,1.16059 -0.4467,1.58528 -0.2965,0.4247 -0.7249,0.73224 -1.2814,0.9153 l 1.8013,2.61773 h -0.9995 z m 1.1057,-1.28507 c 0.3771,-0.30754 0.5675,-0.76153 0.5675,-1.35464 0,-0.58212 -0.1904,-1.02146 -0.5675,-1.31802 -0.3771,-0.29655 -0.9189,-0.44666 -1.6219,-0.44666 h -2.0502 v 3.58063 h 2.0502 c 0.703,0 1.2448,-0.15377 1.6219,-0.46131 z"
         id="path34"
         style="stroke-width:0.0366117" />
      <path
         fill="#6d6e71"
         d="m 1131.5462,546.86086 v 2.53353 h 3.8882 v 0.84939 h -3.8882 v 2.63971 h 4.4959 v 0.8384 h -5.3782 v -7.71042 h 5.2318 v 0.84939 z"
         id="path36"
         style="stroke-width:0.0366117" />
      <path
         fill="#6d6e71"
         d="m 1148.34,546.86086 v 2.70927 h 3.6026 v 0.84939 h -3.6026 v 3.30237 h -0.8823 v -7.71042 h 4.8986 v 0.84939 z"
         id="path38"
         style="stroke-width:0.0366117" />
      <path
         fill="#6d6e71"
         d="m 1162.117,546.50939 c 0.6151,0.34415 1.1057,0.81644 1.4645,1.40589 0.3588,0.59311 0.5418,1.24113 0.5418,1.9514 0,0.71393 -0.1794,1.36928 -0.5418,1.96239 -0.3588,0.59677 -0.8494,1.0654 -1.4645,1.41321 -0.6151,0.34781 -1.2924,0.52355 -2.021,0.52355 -0.7432,0 -1.4205,-0.17208 -2.0392,-0.52355 -0.6151,-0.34781 -1.1057,-0.8201 -1.4645,-1.41321 -0.3588,-0.59677 -0.5419,-1.24846 -0.5419,-1.96239 0,-0.71393 0.1794,-1.36562 0.5419,-1.95873 0.3588,-0.59311 0.8494,-1.06174 1.4645,-1.40222 0.615,-0.34416 1.296,-0.51257 2.0392,-0.51257 0.7323,-0.004 1.4059,0.16841 2.021,0.51623 z m -3.5916,0.72857 c -0.4796,0.27093 -0.864,0.6407 -1.1496,1.10201 -0.2856,0.46131 -0.432,0.97021 -0.432,1.52671 0,0.56016 0.1428,1.07272 0.432,1.53769 0.2856,0.46497 0.67,0.83475 1.1496,1.10568 0.4796,0.27092 1.0032,0.40639 1.5706,0.40639 0.5675,0 1.0874,-0.13547 1.5634,-0.40639 0.4759,-0.27093 0.853,-0.63705 1.1386,-1.10568 0.2819,-0.46497 0.4247,-0.97753 0.4247,-1.53769 0,-0.56016 -0.1428,-1.06906 -0.4247,-1.53037 -0.2819,-0.46131 -0.6627,-0.82742 -1.1386,-1.09835 -0.476,-0.27093 -0.9959,-0.41005 -1.5597,-0.41005 -0.5711,0 -1.0947,0.13546 -1.5743,0.41005 z"
         id="path40"
         style="stroke-width:0.0366117" />
      <path
         fill="#6d6e71"
         d="m 1174.2501,552.91278 c -0.5748,0.56748 -1.3656,0.85305 -2.3724,0.85305 -1.0142,0 -1.8086,-0.28557 -2.3834,-0.85305 -0.5748,-0.56749 -0.8641,-1.35464 -0.8641,-2.36512 v -4.53985 h 0.8824 v 4.53985 c 0,0.74322 0.2123,1.32168 0.6334,1.73906 0.4247,0.41737 0.9995,0.62606 1.7317,0.62606 0.7359,0 1.3107,-0.20869 1.7244,-0.6224 0.4174,-0.41372 0.6224,-0.99584 0.6224,-1.74638 v -4.53985 h 0.8823 v 4.53985 c 0,1.01414 -0.2819,1.80129 -0.8567,2.36878 z"
         id="path42"
         style="stroke-width:0.0366117" />
      <path
         fill="#6d6e71"
         d="m 1185.7755,553.72189 -4.6241,-6.19104 v 6.19104 h -0.8823 v -7.71042 h 0.9153 l 4.6241,6.19836 v -6.19836 h 0.8713 v 7.71042 z"
         id="path44"
         style="stroke-width:0.0366117" />
      <path
         fill="#6d6e71"
         d="m 1197.0849,546.52037 c 0.6004,0.34049 1.0763,0.8018 1.4242,1.38758 0.3514,0.58579 0.5235,1.24114 0.5235,1.95873 0,0.71759 -0.1757,1.3766 -0.5235,1.96239 -0.3479,0.58945 -0.8275,1.05076 -1.4389,1.38758 -0.6077,0.33683 -1.2887,0.50524 -2.0319,0.50524 h -3.0864 v -7.71042 h 3.1193 c 0.7432,0 1.4132,0.16841 2.0137,0.5089 z m -4.2507,6.36312 h 2.248 c 0.5675,0 1.0837,-0.12814 1.5487,-0.38809 0.4649,-0.25994 0.8347,-0.61874 1.1056,-1.08004 0.271,-0.45765 0.4064,-0.97021 0.4064,-1.5377 0,-0.56748 -0.1391,-1.07638 -0.4137,-1.53403 -0.2746,-0.45764 -0.648,-0.81644 -1.1203,-1.0837 -0.4686,-0.26361 -0.9885,-0.39907 -1.5597,-0.39907 h -2.215 z"
         id="path46"
         style="stroke-width:0.0366117" />
      <path
         fill="#6d6e71"
         d="m 1204.0484,551.77415 -0.8604,1.94774 h -0.9372 l 3.4561,-7.71042 h 0.9153 l 3.4452,7.71042 h -0.9519 l -0.8604,-1.94774 z m 2.0942,-4.75952 -1.7171,3.91013 h 3.4562 z"
         id="path48"
         style="stroke-width:0.0366117" />
      <path
         fill="#6d6e71"
         d="m 1215.852,546.86086 v 6.86103 h -0.8787 v -6.86103 h -2.5042 v -0.84939 h 5.9091 v 0.84939 z"
         id="path50"
         style="stroke-width:0.0366117" />
      <path
         fill="#6d6e71"
         d="m 1222.6215,553.72189 v -7.71042 h 0.8824 v 7.71042 z"
         id="path52"
         style="stroke-width:0.0366117" />
      <path
         fill="#6d6e71"
         d="m 1234.2567,546.50939 c 0.6151,0.34415 1.1057,0.81644 1.4645,1.40589 0.3588,0.59311 0.5419,1.24113 0.5419,1.9514 0,0.71393 -0.1794,1.36928 -0.5419,1.96239 -0.3588,0.59677 -0.8494,1.0654 -1.4645,1.41321 -0.615,0.34781 -1.2924,0.52355 -2.0209,0.52355 -0.7432,0 -1.4206,-0.17208 -2.0393,-0.52355 -0.6151,-0.34781 -1.1057,-0.8201 -1.4645,-1.41321 -0.3588,-0.59677 -0.5418,-1.24846 -0.5418,-1.96239 0,-0.71393 0.1794,-1.36562 0.5418,-1.95873 0.3588,-0.59311 0.8494,-1.06174 1.4645,-1.40222 0.6151,-0.34416 1.2961,-0.51257 2.0393,-0.51257 0.7322,-0.004 1.4059,0.16841 2.0209,0.51623 z m -3.5916,0.72857 c -0.4796,0.27093 -0.864,0.6407 -1.1496,1.10201 -0.2856,0.46131 -0.432,0.97021 -0.432,1.52671 0,0.56016 0.1428,1.07272 0.432,1.53769 0.2856,0.46497 0.67,0.83475 1.1496,1.10568 0.4796,0.27092 1.0032,0.40639 1.5707,0.40639 0.5675,0 1.0873,-0.13547 1.5633,-0.40639 0.4759,-0.27093 0.853,-0.63705 1.1386,-1.10568 0.2819,-0.46497 0.4247,-0.97753 0.4247,-1.53769 0,-0.56016 -0.1428,-1.06906 -0.4247,-1.53037 -0.2819,-0.46131 -0.6627,-0.82742 -1.1386,-1.09835 -0.476,-0.27093 -0.9958,-0.41005 -1.5597,-0.41005 -0.5711,0 -1.091,0.13546 -1.5743,0.41005 z"
         id="path54"
         style="stroke-width:0.0366117" />
      <path
         fill="#6d6e71"
         d="m 1246.4411,553.72189 -4.624,-6.19104 v 6.19104 h -0.8824 v -7.71042 h 0.9153 l 4.6241,6.19836 v -6.19836 h 0.8713 v 7.71042 z"
         id="path56"
         style="stroke-width:0.0366117" />
      <path
         fill="url(#SVGID_1_)"
         d="m 1041.5473,471.1222 c -1.6585,0.9812 -4.4154,3.7527 -7.7068,7.77267 l 3.0242,5.70777 c 2.1235,-3.03511 4.2799,-5.76635 6.4546,-8.09851 0.1684,-0.18672 0.2563,-0.27459 0.2563,-0.27459 -0.084,0.0915 -0.1684,0.18306 -0.2563,0.27459 -0.7029,0.77617 -2.8374,3.26576 -6.0592,8.21567 3.101,-0.15377 7.8678,-0.79082 11.756,-1.45349 1.1569,-6.48027 -1.135,-9.44582 -1.135,-9.44582 0,0 -2.9179,-4.71559 -6.3338,-2.69829 z"
         id="path65"
         style="fill:url(#SVGID_1_);stroke-width:0.0366117" />
      <path
         fill="none"
         d="m 1036.4253,503.68466 c 0.022,-0.004 0.044,-0.007 0.066,-0.011 l -0.4356,0.0476 c -0.026,0.011 -0.051,0.0256 -0.077,0.0366 0.1501,-0.0256 0.3002,-0.0513 0.4466,-0.0732 z"
         id="path67"
         style="stroke-width:0.0366117" />
      <path
         fill="none"
         d="m 1033.339,513.90665 c -0.2453,0.0549 -0.5016,0.0989 -0.7579,0.13547 0.2599,-0.0366 0.5126,-0.0805 0.7579,-0.13547 z"
         id="path69"
         style="stroke-width:0.0366117" />
      <path
         fill="none"
         d="m 1012.3604,536.84389 c 0.033,-0.0842 0.066,-0.17207 0.095,-0.25628 0.6664,-1.75736 1.3254,-3.46713 1.9771,-5.1293 0.7322,-1.8672 1.4571,-3.67582 2.171,-5.42952 0.7542,-1.84523 1.4975,-3.63188 2.2297,-5.35629 0.7688,-1.80862 1.5267,-3.55134 2.2699,-5.22815 0.6041,-1.36562 1.2009,-2.6873 1.7903,-3.96505 0.1977,-0.42836 0.3918,-0.84939 0.5858,-1.26677 0.3845,-0.83108 0.7689,-1.6402 1.146,-2.43468 0.3478,-0.73223 0.6956,-1.44982 1.0361,-2.15277 0.1135,-0.23431 0.227,-0.46863 0.3405,-0.69928 0.018,-0.0366 0.037,-0.0732 0.055,-0.1135 l -0.3734,0.0403 -0.2929,-0.58213 c -0.029,0.0586 -0.059,0.1135 -0.088,0.16842 -0.5309,1.05441 -1.0581,2.11981 -1.578,3.19254 -0.3002,0.61873 -0.6004,1.2448 -0.9006,1.86719 -0.8274,1.7354 -1.6402,3.48544 -2.4384,5.24646 -0.8091,1.77933 -1.5999,3.56964 -2.3761,5.36362 -0.7615,1.76102 -1.512,3.52205 -2.2406,5.27941 -0.7322,1.75736 -1.4462,3.50374 -2.1418,5.2428 -0.7286,1.81228 -1.4352,3.61357 -2.1235,5.38924 -0.1537,0.39907 -0.3112,0.8018 -0.4649,1.20087 -0.5492,1.43517 -1.0874,2.84839 -1.6109,4.24695 l 0.4649,0.91896 0.4174,-0.0439 c 0.015,-0.0403 0.029,-0.0842 0.048,-0.12448 0.6773,-1.8379 1.3436,-3.63188 2.0026,-5.3746 z"
         id="path71"
         style="stroke-width:0.0366117" />
      <path
         fill="none"
         d="m 1032.3907,514.07141 v 0 c 0,0 0,0 0,-0.004 0,0.004 0,0.004 0,0.004 z"
         id="path73"
         style="stroke-width:0.0366117" />
      <path
         fill="#be202e"
         d="m 1031.3876,519.05792 c -0.3881,0.0696 -0.7835,0.13913 -1.1899,0.20869 0,0 0,0.004 -0.01,0.004 0.205,-0.0293 0.41,-0.0622 0.6077,-0.0952 0.2014,-0.0366 0.3954,-0.0769 0.5895,-0.11716 z"
         id="path75"
         style="stroke-width:0.0366117" />
      <path
         opacity="0.35"
         fill="#be202e"
         d="m 1031.3876,519.05792 c -0.3881,0.0696 -0.7835,0.13913 -1.1899,0.20869 0,0 0,0.004 -0.01,0.004 0.205,-0.0293 0.41,-0.0622 0.6077,-0.0952 0.2014,-0.0366 0.3954,-0.0769 0.5895,-0.11716 z"
         id="path77"
         style="stroke-width:0.0366117" />
      <path
         fill="#be202e"
         d="m 1032.4017,514.06775 c 0,0 0,0 0,0 0,0.004 -0.01,0.004 -0.01,0.004 0.066,-0.007 0.1281,-0.0183 0.1904,-0.0293 0.2562,-0.0366 0.5089,-0.0805 0.7578,-0.13546 -0.3112,0.0549 -0.6224,0.10617 -0.9409,0.16109 z"
         id="path79"
         style="stroke-width:0.0366117" />
      <path
         opacity="0.35"
         fill="#be202e"
         d="m 1032.4017,514.06775 c 0,0 0,0 0,0 0,0.004 -0.01,0.004 -0.01,0.004 0.066,-0.007 0.1281,-0.0183 0.1904,-0.0293 0.2562,-0.0366 0.5089,-0.0805 0.7578,-0.13546 -0.3112,0.0549 -0.6224,0.10617 -0.9409,0.16109 z"
         id="path81"
         style="stroke-width:0.0366117" />
      <path
         fill="url(#SVGID_2_)"
         d="m 1027.9461,499.34984 c 0.9189,-1.71709 1.8488,-3.39757 2.7898,-5.03045 0.9775,-1.69879 1.966,-3.34265 2.9619,-4.9316 0.059,-0.0952 0.1171,-0.19038 0.1757,-0.28191 0.9885,-1.56332 1.9843,-3.0644 2.9875,-4.49958 l -3.0241,-5.71143 c -0.227,0.27825 -0.4577,0.56016 -0.6883,0.84939 -0.8714,1.08737 -1.7793,2.25529 -2.7056,3.49642 -1.0471,1.39857 -2.1235,2.88867 -3.2145,4.45565 -1.0105,1.44616 -2.032,2.96189 -3.0571,4.52887 -0.8714,1.33632 -1.7464,2.70926 -2.6141,4.11881 -0.033,0.0513 -0.066,0.10618 -0.095,0.15744 l 3.9358,7.77266 c 0.8347,-1.66949 1.6878,-3.31336 2.5482,-4.92427 z"
         id="path92"
         style="fill:url(#SVGID_2_);stroke-width:0.0366117" />
      <path
         fill="url(#SVGID_3_)"
         d="m 1010.021,543.14843 c -0.5199,1.43152 -1.0435,2.88867 -1.5707,4.37876 -0.01,0.022 -0.015,0.0439 -0.022,0.0659 -0.073,0.20869 -0.1502,0.42104 -0.2234,0.62973 -0.3551,1.00316 -0.659,1.90747 -1.3656,3.96138 1.1606,0.53087 2.0905,1.92212 2.9692,3.50008 -0.095,-1.63654 -0.7688,-3.17057 -2.0576,-4.36045 5.7151,0.25628 10.6394,-1.18622 13.1839,-5.36728 0.227,-0.37344 0.4357,-0.76518 0.6224,-1.1789 -1.1569,1.46813 -2.5921,2.09053 -5.2904,1.94042 -0.01,0.004 -0.011,0.004 -0.018,0.007 0.01,-0.004 0.011,-0.004 0.018,-0.007 3.9761,-1.77933 5.9714,-3.48909 7.7324,-6.31918 0.4174,-0.66999 0.8238,-1.40589 1.2375,-2.21867 -3.4745,3.56964 -7.5054,4.58745 -11.7487,3.81494 l -3.1816,0.34781 c -0.088,0.26727 -0.1867,0.53453 -0.2855,0.80546 z"
         id="path103"
         style="fill:url(#SVGID_3_);stroke-width:0.0366117" />
      <path
         fill="url(#SVGID_4_)"
         d="m 1011.5074,536.02013 c 0.6883,-1.77567 1.3949,-3.57696 2.1235,-5.38924 0.6956,-1.7354 1.4095,-3.48544 2.1418,-5.2428 0.7322,-1.75736 1.4791,-3.51839 2.2406,-5.27941 0.7762,-1.79398 1.5706,-3.58063 2.3761,-5.36362 0.7981,-1.76102 1.6109,-3.51106 2.4383,-5.24646 0.2966,-0.62606 0.5968,-1.24846 0.9007,-1.86719 0.5199,-1.07273 1.0471,-2.13813 1.578,-3.19254 0.029,-0.0586 0.059,-0.1135 0.088,-0.16842 l -3.9357,-7.77267 c -0.066,0.10618 -0.1282,0.21235 -0.1941,0.31486 -0.9189,1.49742 -1.8306,3.02779 -2.7239,4.59111 -0.9043,1.57797 -1.794,3.18888 -2.6617,4.82177 -0.7322,1.3766 -1.4498,2.76784 -2.1454,4.17007 -0.1391,0.28557 -0.2783,0.56748 -0.4137,0.84939 -0.8567,1.76469 -1.6329,3.47079 -2.3322,5.10734 -0.7945,1.85621 -1.4901,3.63188 -2.1052,5.31236 -0.4027,1.10567 -0.7688,2.17473 -1.102,3.19986 -0.2746,0.87868 -0.5382,1.7537 -0.7871,2.62872 -0.5858,2.06124 -1.0947,4.11516 -1.5084,6.16175 l 3.9504,7.81294 c 0.5235,-1.3949 1.0581,-2.81178 1.6109,-4.24695 0.1501,-0.39907 0.3075,-0.79814 0.4613,-1.20087 z"
         id="path114"
         style="fill:url(#SVGID_4_);stroke-width:0.0366117" />
      <path
         fill="url(#SVGID_5_)"
         d="m 1005.4262,533.93692 c -0.4979,2.49692 -0.8494,4.98652 -1.0251,7.46147 -0.01,0.0879 -0.015,0.17208 -0.018,0.25995 -1.2339,-1.97704 -4.5399,-3.91014 -4.53257,-3.88817 2.36507,3.43052 4.16277,6.83541 4.42637,10.17806 -1.2668,0.25994 -3.0022,-0.11716 -5.0085,-0.85306 2.0905,1.92212 3.6612,2.45299 4.2726,2.59578 -1.9221,0.12081 -3.92113,1.43883 -5.93477,2.95822 2.94727,-1.20086 5.32697,-1.67682 7.03307,-1.29239 -2.7056,7.65185 -5.41483,16.10183 -8.12776,25.0717 0.83108,-0.2453 1.32534,-0.8018 1.60725,-1.55966 0.48328,-1.62556 3.69051,-12.28689 8.71361,-26.29453 0.1428,-0.39907 0.2856,-0.79814 0.432,-1.20453 0.04,-0.10983 0.081,-0.22333 0.1208,-0.33683 0.5309,-1.46812 1.0801,-2.96921 1.6512,-4.49957 0.1281,-0.34782 0.2599,-0.69563 0.3918,-1.0471 0,-0.007 0,-0.0146 0.01,-0.022 l -3.9504,-7.80561 c -0.018,0.0952 -0.04,0.18671 -0.059,0.27824 z"
         id="path125"
         style="fill:url(#SVGID_5_);stroke-width:0.0366117" />
      <path
         fill="url(#SVGID_6_)"
         d="m 1026.0056,504.9258 c -0.1135,0.23065 -0.227,0.46497 -0.3405,0.69928 -0.3404,0.70295 -0.6883,1.42054 -1.0361,2.15277 -0.3771,0.79448 -0.7578,1.60726 -1.1459,2.43468 -0.1941,0.41738 -0.3881,0.83841 -0.5858,1.26677 -0.5894,1.28141 -1.1862,2.60309 -1.7903,3.96505 -0.7432,1.67681 -1.5011,3.41953 -2.2699,5.22815 -0.7323,1.72441 -1.4755,3.51106 -2.2297,5.35629 -0.7139,1.7537 -1.4388,3.56232 -2.1711,5.42952 -0.6517,1.66217 -1.3143,3.37194 -1.977,5.1293 -0.033,0.0842 -0.066,0.17208 -0.095,0.25628 -0.659,1.74272 -1.3253,3.5367 -1.999,5.3746 -0.015,0.0403 -0.029,0.0842 -0.048,0.12448 l 3.1816,-0.34781 c -0.062,-0.011 -0.1282,-0.0183 -0.1904,-0.033 3.804,-0.47595 8.8637,-3.31702 12.1331,-6.82808 1.5048,-1.61824 2.874,-3.52571 4.1371,-5.75903 0.941,-1.66217 1.8233,-3.5074 2.6654,-5.54667 0.7359,-1.78299 1.4425,-3.71243 2.1235,-5.80662 -0.8751,0.46131 -1.8746,0.79814 -2.9802,1.03245 -0.1941,0.0403 -0.3918,0.0806 -0.5895,0.1135 -0.2014,0.0366 -0.4027,0.0659 -0.6077,0.0952 v 0 0 c 0,0 0,-0.004 0.01,-0.004 3.5477,-1.36561 5.7846,-3.998 7.4102,-7.22715 -0.9336,0.63704 -2.4493,1.46813 -4.2689,1.87086 -0.2453,0.0549 -0.5016,0.0988 -0.7579,0.13546 -0.062,0.011 -0.1281,0.022 -0.1904,0.0293 v 0 0 c 0,0 0,0 0,-0.004 0,0 0,0 0,0 v 0 c 1.2301,-0.51622 2.2699,-1.09102 3.1705,-1.772 0.1941,-0.14645 0.3808,-0.29656 0.5602,-0.45033 0.2746,-0.23797 0.5382,-0.48693 0.7871,-0.75054 0.1611,-0.16841 0.3149,-0.34049 0.465,-0.51988 0.3515,-0.42104 0.6846,-0.87502 0.9922,-1.36562 0.095,-0.15011 0.1867,-0.30388 0.2782,-0.46131 0.1172,-0.22699 0.2307,-0.45032 0.3405,-0.66999 0.4943,-0.99584 0.8933,-1.88551 1.2082,-2.66534 0.1574,-0.38808 0.2966,-0.75054 0.4137,-1.08736 0.048,-0.13547 0.091,-0.26361 0.1355,-0.38809 0.1245,-0.37344 0.227,-0.7066 0.3075,-0.9995 0.1208,-0.43934 0.1941,-0.78715 0.2343,-1.03977 v 0 0 c -0.1208,0.0952 -0.2599,0.19038 -0.4137,0.28191 -1.0727,0.6407 -2.9106,1.22283 -4.3897,1.49376 l 2.9216,-0.32219 -2.9216,0.32219 c -0.022,0.004 -0.044,0.007 -0.066,0.011 -0.1465,0.0256 -0.2966,0.0476 -0.4467,0.0732 0.026,-0.011 0.051,-0.0256 0.077,-0.0366 l -9.995,1.09469 c -0.015,0.0403 -0.033,0.0769 -0.051,0.1135 z"
         id="path136"
         style="fill:url(#SVGID_6_);stroke-width:0.0366117" />
      <path
         fill="url(#SVGID_7_)"
         d="m 1037.2564,484.7198 c -0.8896,1.36561 -1.8599,2.91429 -2.907,4.66799 -0.055,0.0915 -0.1098,0.18672 -0.1647,0.27825 -0.9007,1.51938 -1.8599,3.18888 -2.8667,5.0158 -0.8714,1.57797 -1.7757,3.26943 -2.7203,5.08903 -0.8201,1.58529 -1.6694,3.26577 -2.5408,5.0451 l 9.995,-1.09469 c 2.9106,-1.33999 4.214,-2.55184 5.4771,-4.30554 0.3368,-0.48328 0.6737,-0.98852 1.0068,-1.51207 1.0252,-1.60359 2.0356,-3.36827 2.9326,-5.12197 0.8677,-1.69513 1.6366,-3.37561 2.2224,-4.88767 0.3734,-0.96289 0.6736,-1.85987 0.8823,-2.64703 0.1831,-0.69562 0.3258,-1.35097 0.4357,-1.98069 -3.8809,0.66267 -8.6514,1.29972 -11.7524,1.45349 z"
         id="path147"
         style="fill:url(#SVGID_7_);stroke-width:0.0366117" />
      <path
         fill="#be202e"
         d="m 1030.7981,519.17142 c -0.2014,0.0366 -0.4027,0.0659 -0.6077,0.0952 v 0 c 0.205,-0.0256 0.4063,-0.0586 0.6077,-0.0952 z"
         id="path149"
         style="stroke-width:0.0366117" />
      <path
         opacity="0.35"
         fill="#be202e"
         d="m 1030.7981,519.17142 c -0.2014,0.0366 -0.4027,0.0659 -0.6077,0.0952 v 0 c 0.205,-0.0256 0.4063,-0.0586 0.6077,-0.0952 z"
         id="path151"
         style="stroke-width:0.0366117" />
      <path
         fill="url(#SVGID_8_)"
         d="m 1030.7981,519.17142 c -0.2014,0.0366 -0.4027,0.0659 -0.6077,0.0952 v 0 c 0.205,-0.0256 0.4063,-0.0586 0.6077,-0.0952 z"
         id="path162"
         style="fill:url(#SVGID_8_);stroke-width:0.0366117" />
      <path
         fill="#be202e"
         d="m 1032.3907,514.07141 c 0.066,-0.007 0.1282,-0.0183 0.1904,-0.0293 -0.062,0.011 -0.1245,0.022 -0.1904,0.0293 z"
         id="path164"
         style="stroke-width:0.0366117" />
      <path
         opacity="0.35"
         fill="#be202e"
         d="m 1032.3907,514.07141 c 0.066,-0.007 0.1282,-0.0183 0.1904,-0.0293 -0.062,0.011 -0.1245,0.022 -0.1904,0.0293 z"
         id="path166"
         style="stroke-width:0.0366117" />
      <path
         fill="url(#SVGID_9_)"
         d="m 1032.3907,514.07141 c 0.066,-0.007 0.1282,-0.0183 0.1904,-0.0293 -0.062,0.011 -0.1245,0.022 -0.1904,0.0293 z"
         id="path177"
         style="fill:url(#SVGID_9_);stroke-width:0.0366117" />
      <path
         fill="#be202e"
         d="m 1032.398,514.06775 c 0,0 0,0 0,0 v 0 0 0 c 0,0 0,0 0,0 z"
         id="path179"
         style="stroke-width:0.0366117" />
      <path
         opacity="0.35"
         fill="#be202e"
         d="m 1032.398,514.06775 c 0,0 0,0 0,0 v 0 0 0 c 0,0 0,0 0,0 z"
         id="path181"
         style="stroke-width:0.0366117" />
      <path
         fill="url(#SVGID_10_)"
         d="m 1032.398,514.06775 c 0,0 0,0 0,0 v 0 0 0 c 0,0 0,0 0,0 z"
         id="path192"
         style="fill:url(#SVGID_10_);stroke-width:0.0366117" />
    </g>
  </g>
</svg>
